<svg width="192" height="192" viewBox="0 0 192 192" fill="none" xmlns="http://www.w3.org/2000/svg">
  <rect width="192" height="192" rx="48" fill="#667eea"/>
  <path d="M96 48C110.4 48 128 52.4 128 96C128 139.6 110.4 128 96C110.4 128 96 139.6 96 128C96 139.6 83.2 128 72 139.6 83.2 128C72 139.6 64 128 64 139.6 64 128C64 139.6 52.4 128 52.4 139.6 52.4 128C52.4 139.6 48 128 48 139.6 48 128C48 139.6 48 160 48 160C48 160 52.4 160 52.4 139.6C52.4 139.6 64 160 64 139.6 64 160C64 139.6 83.2 160 83.2 139.6C83.2 139.6 96 160 96 139.6 96 160C96 139.6 110.4 160 110.4 139.6C110.4 139.6 128 160 128 139.6 128 160C128 139.6 139.6 128 160 139.6 128 139.6C139.6 128 139.6 110.4 128 139.6 110.4 128C139.6 110.4 96 128 96 139.6 96 128C96 139.6 83.2 128 83.2 139.6 83.2 128C83.2 139.6 64 128 64 139.6 64 128C64 139.6 52.4 128 52.4 139.6 52.4 128C52.4 139.6 48 128 48 139.6 48 128C48 139.6 48 160 48 160C48 160 52.4 160 52.4 139.6C52.4 139.6 64 160 64 139.6 64 160C64 139.6 83.2 160 83.2 139.6C83.2 139.6 96 160 96 139.6 96 160C96 139.6 110.4 160 110.4 139.6C110.4 139.6 128 160 128 139.6 128 160C128 139.6 139.6 128 160 139.6 128 139.6Z" fill="white"/>
  <circle cx="96" cy="96" r="20" fill="#10b981"/>
  <path d="M85 85L107 96L85 107" stroke="white" stroke-width="4" stroke-linecap="round"/>
  <circle cx="85" cy="85" r="8" fill="white"/>
  <circle cx="107" cy="96" r="8" fill="white"/>
</svg>
